<svg width="65.519" height="65.663" viewBox="0 0 17.335 17.373" xmlns="http://www.w3.org/2000/svg"><path style="fill:#000;fill-opacity:1;fill-rule:nonzero;stroke:none" transform="matrix(.35278 0 0 -.35278 -75.992 173.828)" d="M241.691 467.399h5.983v-5.711zm0 8.71h5.983v-5.71zm0 8.711h5.983v-5.711zm3.793-38.195c-10.615-2.232-19.246 2.191-25.14 11.219 2.953 3.051 5.655 4.031 10.344 4.031 8 0 15.378-6.772 14.971-13.085-.035-.54-.078-1.607-.175-2.165m-15.019 17.042c-5.096 0-9.665-2.044-12.843-5.281 4.688-10.945 18.565-17.969 29.939-13.553.167.896.272 1.813.272 2.755 0 8.88-7.776 16.079-17.368 16.079m23.368 24.798v-40.583c6.47 4.425 10.718 11.861 10.718 20.291 0 8.431-4.248 15.867-10.718 20.292m-13.852 4.277c-13.569 0-24.57-11-24.57-24.569 0-13.569 11.001-24.57 24.57-24.57 4.333 0 8.402 1.127 11.937 3.096v42.947a24.455 24.455 0 0 1-11.937 3.096zm0-1.889c3.414 0 6.65-.755 9.553-2.105l.006-41.147a22.588 22.588 0 0 0-9.559-2.106c-12.525 0-22.678 10.153-22.678 22.678 0 12.526 10.153 22.68 22.678 22.68z"/></svg>