<svg width="65.414" height="65.414" viewBox="0 0 17.307 17.307" xmlns="http://www.w3.org/2000/svg"><g aria-label="UB" style="font-size:12.7px;stroke-width:.264583"><path d="M78.49 40.024q.161 0 .161.13 0 .093-.087.167-.08.075-.291.174-.112.05-.248.118-.13.068-.273.161-.137.087-.273.211-.136.118-.26.273-.162.198-.28.508-.117.31-.204.707-.08.39-.124.856-.037.465-.037.974 0 .558.037 1.11.037.545.124 1.041.093.496.242.918.149.422.366.732.223.31.527.484.304.173.707.173.514 0 .88-.273.372-.272.608-.7.242-.428.353-.95.118-.52.118-1.022 0-.13-.006-.348 0-.223-.012-.49-.007-.266-.031-.551-.02-.286-.062-.552-.044-.267-.112-.484-.068-.223-.161-.353-.093-.13-.217-.236-.124-.106-.304-.192-.174-.087-.416-.15-.242-.061-.564-.11-.26-.038-.397-.088-.136-.055-.136-.192 0-.118.105-.161.112-.043.304-.043.18 0 .39.024.218.025.46.056.248.025.52.05.273.025.57.025.274 0 .547-.031.272-.031.52-.062l.472-.069q.223-.03.397-.03.217 0 .291.037.075.037.075.105 0 .074-.087.1-.087.024-.23.036-.149.013-.322.025-.168.013-.335.056-.167.043-.316.13-.143.087-.236.248-.124.205-.18.558-.05.354-.068.782-.019.428-.019.893 0 .459-.024.88-.013.248-.056.633-.044.378-.149.806-.105.422-.291.85-.187.421-.49.762-.298.341-.732.558-.434.211-1.036.211-.583 0-1.06-.173-.478-.174-.856-.49-.378-.317-.651-.75-.273-.441-.446-.962-.106-.316-.174-.707-.062-.397-.106-.83-.037-.435-.062-.894-.018-.459-.024-.911-.013-.391-.038-.707-.024-.316-.08-.558-.056-.242-.155-.403-.093-.168-.248-.26-.174-.106-.36-.15-.18-.043-.465-.043-.242 0-.242-.174 0-.142.205-.18.273-.043.546-.08.279-.037.57-.08.291-.044.602-.094.31-.056.644-.136.602-.15 1.055-.304.452-.161.775-.292l.533-.21q.21-.087.329-.087z" style="fill:#cca65c" transform="translate(-73.231 -36.883)"/><path d="M87.19 39.187q.39 0 .794.093.409.093.738.322.328.23.54.62.21.39.21.986 0 .465-.143.837-.136.372-.36.664-.222.291-.502.515-.279.217-.558.372t-.533.26q-.248.1-.415.155.254 0 .613.062.366.056.763.199.403.142.794.384.39.242.7.614.317.372.51.887.198.508.198 1.184 0 .595-.13 1.067-.13.471-.354.837-.223.366-.515.632-.291.267-.614.447-.322.18-.657.279-.329.1-.626.13-.323.037-.602.05-.279.012-.515.012-.384 0-.7-.018-.317-.019-.633-.019-.409 0-.769.08-.36.087-.663.211-.304.125-.558.273l-.453.273q-.198.124-.347.205-.143.087-.242.087-.143 0-.143-.155 0-.118.124-.236.13-.118.329-.248.198-.13.434-.273.242-.143.459-.31.136-.105.248-.23.118-.123.205-.285.093-.155.148-.36.062-.21.1-.483.05-.385.068-.955.018-.57.018-1.277 0-.373.007-.893.006-.521.006-1.104 0-.602-.013-1.228-.012-.626-.055-1.19-.038-.571-.112-1.036-.068-.465-.186-.738-.105-.242-.254-.41-.143-.173-.329-.285-.18-.118-.39-.186-.205-.068-.428-.105-.162-.031-.218-.068-.05-.044-.05-.1 0-.055.044-.074.05-.025.124-.025.112 0 .236.019.124.012.285.03.168.02.372.038.205.012.478.012.564 0 .998-.08.44-.087.831-.186.397-.106.794-.193.403-.086.899-.086zm-2.12.688q.018.279.036.608.019.328.044.682.025.347.043.707l.05.682q.05.775.105 1.575.72-.05 1.29-.31.242-.112.471-.28.236-.167.416-.408.186-.242.298-.565.111-.328.111-.75 0-.608-.149-1.01-.148-.404-.397-.646-.248-.242-.576-.34-.329-.1-.689-.1-.297 0-.57.043-.267.044-.484.112zm.303 4.707.043.781.062.887.063.905q.037.447.062.831.03.385.055.682.025.292.044.434.03.31.111.57.087.261.236.447t.372.292q.223.105.54.105.434 0 .8-.18.372-.173.638-.545.273-.372.422-.937.155-.57.155-1.352 0-.756-.192-1.333-.186-.583-.521-.973-.335-.397-.794-.596-.453-.204-.992-.204-.335 0-.639.055-.304.056-.465.13z" style="fill:#5b3c86" transform="translate(-73.231 -36.883)"/></g></svg>