<svg width="16.098" height="35.373" xmlns="http://www.w3.org/2000/svg"><path style="fill:#000;fill-opacity:1;fill-rule:nonzero;stroke:none" d="M374 828a2 2 0 1 0-4.001.001A2 2 0 0 0 374 828m-2-8.223c-.219.005-.674 4.591-3.266 5.148-2.163.464-2.843-1.344-2.765-1.953.059-.463.191-.743.437-.922 1.186-.858 1.855 1.738.063 1.094-.026-.03-.259 1.812 2.094 1.265 2.624-.609 3.437-9.674 3.437-9.674s.813 9.065 3.438 9.674c2.352.547 2.119-1.295 2.093-1.265-1.792.644-1.123-1.952.063-1.094.246.179.378.459.437.922.078.609-.602 2.417-2.765 1.953-2.592-.557-3.047-5.153-3.266-5.148m0 16.446c.219-.005.674-4.591 3.266-5.148 2.163-.464 2.843 1.344 2.765 1.953-.059.463-.191.743-.437.922-1.186.858-1.855-1.738-.063-1.094.026.03.259-1.812-2.093-1.265-2.625.609-3.438 9.674-3.438 9.674s-.813-9.065-3.437-9.674c-2.353-.547-2.12 1.295-2.094 1.265 1.792-.644 1.123 1.952-.063 1.094-.246-.179-.378-.459-.437-.922-.078-.609.602-2.417 2.765-1.953 2.592.557 3.047 5.153 3.266 5.148" transform="matrix(1.33333 0 0 -1.33333 -487.95 1121.687)"/></svg>