<svg width="35.373" height="16.1" viewBox="0 0 9.359 4.26" xmlns="http://www.w3.org/2000/svg"><path style="fill:#000;fill-opacity:1;fill-rule:nonzero;stroke:none" d="M419.125 837.583a2 2 0 1 0 0-4 2 2 0 0 0 0 4m8.223-2c-.005-.218-4.591-.674-5.148-3.265-.464-2.164 1.344-2.844 1.953-2.766.463.059.743.191.922.438.858 1.185-1.738 1.854-1.094.062.03-.025-1.812-.258-1.265 2.094.609 2.624 9.674 3.437 9.674 3.437s-9.065.814-9.674 3.438c-.547 2.352 1.295 2.119 1.265 2.094-.644-1.792 1.952-1.123 1.094.062-.179.247-.459.379-.922.438-.609.078-2.417-.602-1.953-2.766.557-2.591 5.153-3.047 5.148-3.266m-16.446 0c.005.219 4.591.675 5.148 3.266.464 2.164-1.344 2.844-1.953 2.766-.463-.059-.743-.191-.922-.438-.858-1.185 1.738-1.854 1.094-.062-.03.025 1.812.258 1.265-2.094-.609-2.624-9.674-3.438-9.674-3.438s9.065-.813 9.674-3.437c.547-2.352-1.295-2.119-1.265-2.094.644 1.792-1.952 1.123-1.094-.062.179-.247.459-.379.922-.438.609-.078 2.417.602 1.953 2.766-.557 2.591-5.153 3.047-5.148 3.265" transform="matrix(.35278 0 0 -.35278 -143.178 296.905)"/></svg>